<?xml version="1.0" encoding="utf-8"?>
<!-- Generator: Adobe Illustrator 18.0.0, SVG Export Plug-In . SVG Version: 6.00 Build 0)  -->
<!DOCTYPE svg PUBLIC "-//W3C//DTD SVG 1.1//EN" "http://www.w3.org/Graphics/SVG/1.1/DTD/svg11.dtd">
<svg version="1.1" id="Layer_1" xmlns="http://www.w3.org/2000/svg" xmlns:xlink="http://www.w3.org/1999/xlink" x="0px" y="0px"
	 viewBox="0 0 266.5 69.2" enable-background="new 0 0 266.5 69.2" xml:space="preserve">
<g>
	<g>
		<g>
			<path fill-rule="evenodd" clip-rule="evenodd" fill="#424242" d="M151,28.8c0,0,0-7.8,0-11.8c-33.3,0-31.2,31-51.8,31H88
				c0-10.3,0-20.7,0-31c-5,0-10,0-15,0c0,14.7,0,29.3,0,44h30.5C123.8,61,128.2,28.8,151,28.8z"/>
			<path fill-rule="evenodd" clip-rule="evenodd" fill="#424242" d="M0,44.2c21.1,0,25.7-21,39-33.2C47,3.7,55.9-0.2,71,0
				c0,5.3,0,10.7,0,16C33,16.7,41.2,63.5,0,61C0,55.3,0,49.9,0,44.2z"/>
			<path fill-rule="evenodd" clip-rule="evenodd" fill="#424242" d="M41.1,35.5c4.3,0,9.5,0,13.9,0c0-4.7,0-9.1,0-13.8
				c5-2.8,8.8-4.2,16-4.2c0,14.7,0,28.8,0,43.5c-5.3,0-10.7,0-16,0c0-4.3,0-9.1,0-13.5l-22.1,0"/>
		</g>
		<path fill-rule="evenodd" clip-rule="evenodd" fill="#424242" d="M200.1,28.8c0,0,0-7.8,0-11.8c-33.3,0-31.2,31-49.1,31l0,0
			c0-10.3,0-7.6,0-18c-5,0-10.4,2.2-13,4.8c0,2.9,0,7.2,0,7.2l-8,0c-2.2,3.2-6.6,8.6-9.6,12l17.6,0c0,1.8,0,4,0,7h14.6
			C172.9,61,177.3,28.8,200.1,28.8z"/>
	</g>
	<g>
		<path fill="#B3B3B3" d="M200.6,32.8V55c0,1.6,0,3.5,0.2,4.7h-3l-0.2-3.2h-0.1c-1,2-3.3,3.6-6.3,3.6c-4.4,0-7.9-3.8-7.9-9.3
			c0-6.1,3.8-9.9,8.2-9.9c2.8,0,4.7,1.3,5.5,2.8h0.1v-11H200.6z M197.3,48.8c0-0.4,0-1-0.2-1.4c-0.5-2.1-2.3-3.9-4.8-3.9
			c-3.5,0-5.5,3-5.5,7.1c0,3.7,1.8,6.8,5.4,6.8c2.2,0,4.3-1.5,4.9-4c0.1-0.5,0.2-0.9,0.2-1.4V48.8z"/>
		<path fill="#B3B3B3" d="M205,57.8c0-1.4,0.9-2.4,2.3-2.4s2.2,1,2.2,2.4c0,1.4-0.9,2.4-2.3,2.4C205.9,60.1,205,59.1,205,57.8z"/>
		<path fill="#B3B3B3" d="M230.3,50.4c0,6.8-4.7,9.8-9.1,9.8c-5,0-8.8-3.6-8.8-9.4c0-6.1,4-9.8,9.1-9.8
			C226.7,40.9,230.3,44.8,230.3,50.4z M215.7,50.6c0,4,2.3,7.1,5.6,7.1c3.2,0,5.6-3,5.6-7.1c0-3.1-1.6-7.1-5.5-7.1
			C217.4,43.4,215.7,47.1,215.7,50.6z"/>
		<path fill="#B3B3B3" d="M232.8,57.8c0-1.4,0.9-2.4,2.3-2.4s2.2,1,2.2,2.4c0,1.4-0.9,2.4-2.3,2.4C233.7,60.1,232.8,59.1,232.8,57.8
			z"/>
		<path fill="#B3B3B3" d="M258.1,50.4c0,6.8-4.7,9.8-9.1,9.8c-5,0-8.8-3.6-8.8-9.4c0-6.1,4-9.8,9.1-9.8
			C254.5,40.9,258.1,44.8,258.1,50.4z M243.5,50.6c0,4,2.3,7.1,5.6,7.1c3.2,0,5.6-3,5.6-7.1c0-3.1-1.6-7.1-5.5-7.1
			C245.2,43.4,243.5,47.1,243.5,50.6z"/>
		<path fill="#B3B3B3" d="M260.6,57.8c0-1.4,0.9-2.4,2.3-2.4s2.2,1,2.2,2.4c0,1.4-0.9,2.4-2.3,2.4C261.5,60.1,260.6,59.1,260.6,57.8
			z"/>
	</g>
</g>
</svg>
