<?xml version="1.0" encoding="utf-8"?>
<!-- Generator: Adobe Illustrator 24.2.3, SVG Export Plug-In . SVG Version: 6.00 Build 0)  -->
<svg version="1.1" id="Layer_1" xmlns="http://www.w3.org/2000/svg" xmlns:xlink="http://www.w3.org/1999/xlink" x="0px" y="0px"
	 viewBox="0 0 716.5 221" style="enable-background:new 0 0 716.5 221;" xml:space="preserve">
<style type="text/css">
	.st0{fill:#00A0A3;}
	.st1{fill:#FFB81F;}
	.st2{fill:#FF8602;}
	.st3{fill:#484848;}
</style>
<g>
	<g>
		<path class="st0" d="M13.5,141.5c-7.2,5.6-8.6,16-3,23.2c3.3,4.2,8.2,6.5,13.1,6.5c3.5,0,7.1-1.1,10.1-3.4
			C62,146,83.6,120,98.3,90.1c-7.3-15.4-12.9-31.8-16.8-49C70.8,81.7,48.3,114.7,13.5,141.5z"/>
		<circle class="st0" cx="22.6" cy="63" r="22.6"/>
		<circle class="st1" cx="184.1" cy="63" r="22.6"/>
		<circle class="st2" cx="103.3" cy="198.4" r="22.6"/>
		<path class="st1" d="M119.7,14.3c-1.2-9.1-9.6-15.4-18.7-14.2C92,1.4,85.7,9.8,86.9,18.8c4.8,35,16.6,66.6,35.1,94.4
			c17,1.5,34,4.9,50.9,10.3C143.2,93.6,125.7,57.6,119.7,14.3z"/>
		<path class="st2" d="M189.4,139.3c-32.9-13.6-66.1-19.4-99.2-17.3c-9.7,14-21.1,27.1-34.2,39c40.3-10.9,80-7.9,120.7,8.9
			c8.5,3.5,18.1-0.5,21.6-9C201.8,152.5,197.8,142.8,189.4,139.3z"/>
	</g>
	<g>
		<g>
			<path class="st0" d="M283.2,181.3h-3.2v-13.5c0-2.1-0.4-3.5-1.3-4.1c-0.9-0.7-2-1-3.6-1c-1.5,0-2.7,0.4-3.5,1.1
				c-0.9,0.8-1.3,2.1-1.3,4v13.5H267v-13.5c0-1.9-0.4-3.2-1.3-4c-0.9-0.7-2-1.1-3.5-1.1c-1.5,0-2.7,0.3-3.5,1
				c-0.9,0.7-1.3,2-1.3,4.1v13.5h-3.2v-13.6c0-3,0.7-5.1,2.2-6.1c1.4-1,3.3-1.5,5.6-1.5c3,0,5.3,0.9,6.8,2.8
				c1.5-1.9,3.7-2.8,6.8-2.8c2.3,0,4.1,0.5,5.6,1.5c1.4,1,2.1,3,2.1,6.1V181.3z"/>
			<path class="st0" d="M300.1,181.5c-3,0-5.4-0.9-7.2-2.7c-1.8-1.8-2.7-4.5-2.7-8.1c0-3.6,0.9-6.3,2.7-8c1.8-1.7,4.2-2.6,7.2-2.6
				c3,0,5.4,0.9,7.2,2.6c1.8,1.7,2.7,4.4,2.7,8c0,3.6-0.9,6.3-2.7,8.1C305.5,180.6,303.1,181.5,300.1,181.5z M300.1,178.9
				c4.4,0,6.6-2.8,6.6-8.3c0-2.6-0.5-4.5-1.6-5.9s-2.7-2-5.1-2c-2.4,0-4.1,0.7-5.1,2c-1,1.4-1.6,3.3-1.6,5.9
				C293.5,176.2,295.7,178.9,300.1,178.9z"/>
			<path class="st0" d="M320.1,181.3h-3.2v-17.2c0-2.6,1.7-3.8,5-3.8c2,0,4,0.1,6.1,0.4v2.3h-5.4c-1.7,0-2.5,0.8-2.5,2.5V181.3z"/>
			<path class="st0" d="M344.2,181.5c-3.4,0-6.1-0.9-8.1-2.7c-2-1.8-2.9-4.5-2.9-8.1c0-3.6,0.9-6.3,2.8-8c1.9-1.7,4.3-2.6,7.2-2.6
				c2.9,0,5.3,0.9,7.1,2.7c1.8,1.8,2.7,4.4,2.7,7.9v0.8c0,0.4-0.2,0.6-0.5,0.6h-16c0,1.9,0.6,3.5,1.9,4.8c1.2,1.3,3.4,2,6.5,2
				c1.9,0,4.1-0.1,6.5-0.4v2.3C348.4,181.3,346,181.5,344.2,181.5z M349.8,169.7c-0.2-2.2-0.8-4-1.8-5.2c-1-1.2-2.6-1.8-4.8-1.8
				c-2.2,0-3.9,0.6-5,1.9c-1.1,1.3-1.6,3-1.6,5H349.8z"/>
			<path class="st0" d="M375.5,190.6h-3.2v-19.9c0-3.6,0.9-6.3,2.7-8c1.8-1.7,4.2-2.6,7.2-2.6c3,0,5.4,0.9,7.2,2.6s2.7,4.4,2.7,8
				c0,3.6-0.8,6.3-2.5,8.1c-1.7,1.8-3.9,2.7-6.7,2.7c-3.3,0-5.8-0.8-7.3-2.4V190.6z M382.1,178.9c4.5,0,6.7-2.8,6.7-8.3
				c0-2.6-0.5-4.5-1.6-5.9c-1-1.4-2.8-2-5.1-2c-2.3,0-4,0.7-5.1,2s-1.6,3.3-1.6,5.9c0,3.1,0.5,5.2,1.6,6.4
				C378.1,178.3,379.8,178.9,382.1,178.9z"/>
			<path class="st0" d="M409.3,181.5c-3.4,0-6.1-0.9-8.1-2.7c-2-1.8-2.9-4.5-2.9-8.1c0-3.6,0.9-6.3,2.8-8c1.9-1.7,4.3-2.6,7.2-2.6
				c2.9,0,5.3,0.9,7.1,2.7c1.8,1.8,2.7,4.4,2.7,7.9v0.8c0,0.4-0.2,0.6-0.5,0.6h-16c0,1.9,0.6,3.5,1.9,4.8c1.2,1.3,3.4,2,6.5,2
				c1.9,0,4.1-0.1,6.5-0.4v2.3C413.5,181.3,411.1,181.5,409.3,181.5z M414.9,169.7c-0.2-2.2-0.8-4-1.8-5.2c-1-1.2-2.6-1.8-4.8-1.8
				c-2.2,0-3.9,0.6-5,1.9c-1.1,1.3-1.6,3-1.6,5H414.9z"/>
			<path class="st0" d="M428.1,181.3h-3.2v-17.2c0-2.6,1.7-3.8,5-3.8c2,0,4,0.1,6.1,0.4v2.3h-5.4c-1.7,0-2.5,0.8-2.5,2.5V181.3z"/>
			<path class="st0" d="M449.4,181.6c-2.3,0-4.9-0.3-7.8-0.8v-2.2c3.3,0.3,5.9,0.4,7.8,0.4c1.8,0,3.2-0.2,4.1-0.7
				c0.9-0.5,1.3-1.3,1.3-2.5c0-1-0.5-1.7-1.6-2.3c-1.1-0.5-2.7-1-4.7-1.4c-2.1-0.4-3.8-1-5.2-2c-1.4-0.9-2.1-2.4-2.1-4.2
				c0-2,0.7-3.5,2-4.4c1.4-0.9,3.5-1.4,6.6-1.4c2.3,0,4.8,0.3,7.4,0.8v2.2c-3-0.3-5.5-0.4-7.4-0.4c-1.8,0-3.2,0.3-4.1,0.8
				c-0.9,0.5-1.3,1.3-1.3,2.4c0,1,0.5,1.8,1.6,2.3c1.1,0.5,2.7,1,4.7,1.4c2.1,0.4,3.8,1,5.2,2c1.4,1,2.1,2.4,2.1,4.2
				c0,2-0.7,3.5-2,4.4C454.6,181.1,452.4,181.6,449.4,181.6z"/>
			<path class="st0" d="M474,181.5c-3,0-5.4-0.9-7.2-2.7c-1.8-1.8-2.7-4.5-2.7-8.1c0-3.6,0.9-6.3,2.7-8c1.8-1.7,4.2-2.6,7.2-2.6
				c3,0,5.4,0.9,7.2,2.6c1.8,1.7,2.7,4.4,2.7,8c0,3.6-0.9,6.3-2.7,8.1C479.4,180.6,477,181.5,474,181.5z M474,178.9
				c4.4,0,6.6-2.8,6.6-8.3c0-2.6-0.5-4.5-1.6-5.9s-2.7-2-5.1-2c-2.4,0-4.1,0.7-5.1,2c-1,1.4-1.6,3.3-1.6,5.9
				C467.4,176.2,469.6,178.9,474,178.9z"/>
			<path class="st0" d="M509.3,181.3h-3.2v-12.8c0-1.9-0.4-3.3-1.2-4.3c-0.8-1-2.4-1.5-4.7-1.5c-2.4,0-4,0.5-4.8,1.5
				c-0.8,1-1.2,2.4-1.2,4.3v12.8h-3.2v-13c0-3.1,0.8-5.2,2.4-6.4c1.6-1.2,3.9-1.8,6.9-1.8s5.3,0.6,6.9,1.8c1.6,1.2,2.4,3.4,2.4,6.4
				V181.3z"/>
			<path class="st0" d="M523.9,181.6c-2.6,0-4.6-0.5-6-1.6c-1.4-1.1-2.2-2.6-2.2-4.4c0-4.3,3.1-6.5,9.3-6.6h5.6v-1.5
				c0-1.4-0.5-2.5-1.5-3.4c-1-0.9-2.6-1.4-4.8-1.4c-1.9,0-4,0.1-6.5,0.2v-2.2c2-0.4,4.2-0.6,6.5-0.6c3.3,0,5.7,0.7,7.2,2
				c1.5,1.3,2.3,3.2,2.3,5.7v13.6h-3.2v-2.1C529,180.8,526.8,181.6,523.9,181.6z M523.7,178.9c2.1,0,3.8-0.4,5.1-1.2
				c1.2-0.8,1.9-2,1.9-3.4v-3.2h-4.9c-4.5,0-6.8,1.3-6.8,4c0,1.1,0.4,2,1.3,2.8C521.1,178.6,522.3,178.9,523.7,178.9z"/>
			<path class="st0" d="M545.7,181.5c-2.9,0-4.4-1.4-4.4-4.1v-27h3.2v25.7c0,1.8,0.8,2.7,2.5,2.7h1.1v2.3
				C547.5,181.4,546.6,181.5,545.7,181.5z"/>
			<path class="st0" d="M554.7,187.1h-1.8c0.9-1.9,1.4-3.4,1.4-4.4c0-0.7-0.2-1.3-0.5-1.7c-0.3-0.5-0.5-1-0.5-1.6
				c0-0.8,0.2-1.4,0.5-1.7c0.3-0.4,0.9-0.6,1.7-0.6c0.8,0,1.4,0.2,1.7,0.6c0.3,0.4,0.5,0.9,0.5,1.7
				C557.7,181.4,556.7,184,554.7,187.1z"/>
			<path class="st0" d="M584.4,181.6c-2.6,0-4.6-0.5-6-1.6c-1.4-1.1-2.2-2.6-2.2-4.4c0-4.3,3.1-6.5,9.3-6.6h5.6v-1.5
				c0-1.4-0.5-2.5-1.5-3.4c-1-0.9-2.6-1.4-4.8-1.4c-1.9,0-4,0.1-6.5,0.2v-2.2c2-0.4,4.2-0.6,6.5-0.6c3.3,0,5.7,0.7,7.2,2
				c1.5,1.3,2.3,3.2,2.3,5.7v13.6h-3.2v-2.1C589.5,180.8,587.2,181.6,584.4,181.6z M584.2,178.9c2.1,0,3.8-0.4,5.1-1.2
				c1.2-0.8,1.9-2,1.9-3.4v-3.2h-4.9c-4.5,0-6.8,1.3-6.8,4c0,1.1,0.4,2,1.3,2.8C581.6,178.6,582.8,178.9,584.2,178.9z"/>
			<path class="st0" d="M606.2,181.5c-2.9,0-4.4-1.4-4.4-4.1v-27h3.2v25.7c0,1.8,0.8,2.7,2.5,2.7h1.1v2.3
				C608,181.4,607.1,181.5,606.2,181.5z"/>
			<path class="st0" d="M635.2,181.3c-1.2,0-1.9-0.6-2.3-1.9l-3.9-12.2c-0.1-0.5-0.3-0.7-0.4-0.7s-0.3,0.2-0.4,0.7l-3.9,12
				c-0.4,1.4-1.2,2.1-2.4,2.1c-1.2,0-1.9-0.6-2.3-1.9l-6.4-19.1h3.5l4.7,16.6c0.2,0.5,0.3,0.8,0.5,0.8c0.2,0,0.3-0.3,0.5-0.8
				l4.6-15.3c0.2-0.9,0.7-1.3,1.4-1.3h0.4c0.6,0,1.1,0.4,1.3,1.3l4.7,15.3c0.2,0.5,0.3,0.8,0.5,0.8c0.1,0,0.3-0.3,0.5-0.8l4.7-16.6
				h3.5l-6.3,18.9C637.2,180.6,636.4,181.3,635.2,181.3z"/>
			<path class="st0" d="M656.8,181.6c-2.6,0-4.6-0.5-6-1.6c-1.4-1.1-2.2-2.6-2.2-4.4c0-4.3,3.1-6.5,9.3-6.6h5.6v-1.5
				c0-1.4-0.5-2.5-1.5-3.4c-1-0.9-2.6-1.4-4.8-1.4c-1.9,0-4,0.1-6.5,0.2v-2.2c2-0.4,4.2-0.6,6.5-0.6c3.3,0,5.7,0.7,7.2,2
				c1.5,1.3,2.3,3.2,2.3,5.7v13.6h-3.2v-2.1C661.9,180.8,659.6,181.6,656.8,181.6z M656.6,178.9c2.1,0,3.8-0.4,5.1-1.2
				c1.2-0.8,1.9-2,1.9-3.4v-3.2h-4.9c-4.5,0-6.8,1.3-6.8,4c0,1.1,0.4,2,1.3,2.8C654,178.6,655.1,178.9,656.6,178.9z"/>
			<path class="st0" d="M682.7,190.9c-1.8,0-3.8-0.1-5.9-0.4v-2.3h5.8c4.6,0,6.8-2,6.8-6v-2.7c-1.4,1.4-3.7,2-6.9,2
				c-2.7,0-4.8-0.6-6.2-1.8c-1.4-1.2-2.2-3.4-2.2-6.4v-13h3.2v12.8c0,1.9,0.4,3.3,1.2,4.3s2.4,1.5,4.8,1.5c2.3,0,3.9-0.5,4.7-1.5
				c0.8-1,1.2-2.4,1.2-4.3v-12.8h3.2v21.6C692.7,187.9,689.4,190.9,682.7,190.9z"/>
			<path class="st0" d="M707.9,181.6c-2.3,0-4.9-0.3-7.8-0.8v-2.2c3.3,0.3,5.9,0.4,7.8,0.4c1.8,0,3.2-0.2,4.1-0.7s1.3-1.3,1.3-2.5
				c0-1-0.5-1.7-1.6-2.3c-1.1-0.5-2.7-1-4.7-1.4c-2.1-0.4-3.8-1-5.2-2c-1.4-0.9-2.1-2.4-2.1-4.2c0-2,0.7-3.5,2-4.4
				c1.4-0.9,3.5-1.4,6.6-1.4c2.3,0,4.8,0.3,7.4,0.8v2.2c-3-0.3-5.5-0.4-7.4-0.4c-1.8,0-3.2,0.3-4.1,0.8c-0.9,0.5-1.3,1.3-1.3,2.4
				c0,1,0.5,1.8,1.6,2.3s2.7,1,4.7,1.4c2.1,0.4,3.8,1,5.2,2c1.4,1,2.1,2.4,2.1,4.2c0,2-0.7,3.5-2,4.4
				C713.1,181.1,710.9,181.6,707.9,181.6z"/>
		</g>
		<g>
			<path class="st3" d="M310.2,30.7c-7.4,0-12.3,2.4-14.8,7.3l-41.2,92.7h23l31.8-75.2c0.3-0.6,0.5-0.9,0.8-0.9
				c0.3,0,0.5,0.3,0.8,0.9l31.8,75.2h23l-40.9-92.2C321.7,33.4,316.9,30.7,310.2,30.7z"/>
			<path class="st3" d="M465.6,130.1h-50.4c-7.6,0-13.7-1.8-18.4-5.4c-4.6-3.6-7-8.9-7-15.9v-78h21.3v78c0,3,2.4,4.4,7.1,4.4h47.3
				V130.1z"/>
			<path class="st3" d="M553.3,30.7c-7.4,0-12.3,2.4-14.8,7.3l-41.2,92.7h23l31.8-75.2c0.3-0.6,0.5-0.9,0.8-0.9
				c0.3,0,0.5,0.3,0.8,0.9l31.8,75.2h23l-40.9-92.2C564.8,33.4,560.1,30.7,553.3,30.7z"/>
			<path class="st3" d="M670.8,130.7c-12.9,0-25.9-1.1-39.3-3.4v-16.8c14.7,2.2,27.9,3.4,39.3,3.4c16.2,0,24.2-4,24.2-12.1
				c0-2.4-1.8-4.6-5.3-6.5c-3.6-1.9-11.1-4.3-22.7-7.2c-11.6-2.9-20.5-6.6-26.9-11.1c-6.4-4.4-9.6-10.7-9.6-18.6
				c0-8.4,3.8-15.2,11.3-20.4c7.5-5.2,18.5-7.8,32.8-7.8c10.2,0,22,1.1,35.4,3.4v16.7c-14.7-2.2-26.6-3.3-35.5-3.3
				c-8.5,0-14.4,1-17.7,3.1c-3.3,2.1-5,4.8-5,8.2c0,2.5,1.7,4.8,5,6.9c3.4,2.1,10.9,4.6,22.7,7.5c11.8,3,20.8,6.6,27.2,10.8
				c6.4,4.2,9.6,10.3,9.6,18.3c0,8.4-3.9,15.3-11.7,20.8C697,128,685.7,130.7,670.8,130.7z"/>
		</g>
	</g>
</g>
</svg>
